<svg id="Capa_1" enable-background="new 0 0 510.001 510.001" height="512" viewBox="0 0 510.001 510.001" width="512" xmlns="http://www.w3.org/2000/svg" xmlns:xlink="http://www.w3.org/1999/xlink"><linearGradient id="SVGID_1_" gradientUnits="userSpaceOnUse" x1="161.707" x2="483.731" y1="138.294" y2="460.318"><stop offset="0" stop-color="#01c0fa"/><stop offset="1" stop-color="#0290cf"/></linearGradient><linearGradient id="lg1"><stop offset="0" stop-color="#75cdd5" stop-opacity="0"/><stop offset="1" stop-color="#03bed7"/></linearGradient><linearGradient id="SVGID_2_" gradientUnits="userSpaceOnUse" x1="235.404" x2="387.261" xlink:href="#lg1" y1="188.115" y2="489.832"/><linearGradient id="lg2"><stop offset="0" stop-color="#017bae" stop-opacity="0"/><stop offset="1" stop-color="#017bae"/></linearGradient><linearGradient id="SVGID_3_" gradientUnits="userSpaceOnUse" x1="282.064" x2="430.556" xlink:href="#lg2" y1="315.903" y2="440.396"/><linearGradient id="SVGID_4_" gradientUnits="userSpaceOnUse" x1="179.467" x2="418.988" xlink:href="#lg1" y1="315.456" y2="428.46"/><linearGradient id="SVGID_5_" gradientUnits="userSpaceOnUse" x1="184.831" x2="386.324" xlink:href="#lg2" y1="93.109" y2="452.376"/><linearGradient id="SVGID_6_" gradientUnits="userSpaceOnUse" x1="192.075" x2="316.075" xlink:href="#lg2" y1="131.662" y2="253.662"/><linearGradient id="SVGID_7_" gradientUnits="userSpaceOnUse" x1="332.186" x2="387.683" xlink:href="#lg2" y1="105.239" y2="237.232"/><linearGradient id="SVGID_8_" gradientUnits="userSpaceOnUse" x1="83.19" x2="208.021" xlink:href="#lg1" y1="148.909" y2="311.126"/><linearGradient id="SVGID_9_" gradientUnits="userSpaceOnUse" x1="354.544" x2="438.187" xlink:href="#lg1" y1="145.789" y2="304.838"/><linearGradient id="SVGID_10_" gradientUnits="userSpaceOnUse" x1="366.904" x2="408.902" xlink:href="#lg2" y1="167.915" y2="233.912"/><linearGradient id="SVGID_11_" gradientUnits="userSpaceOnUse" x1="219.097" x2="334.175" xlink:href="#lg1" y1="157.244" y2="306.787"/><linearGradient id="SVGID_12_" gradientUnits="userSpaceOnUse" x1="255" x2="255" xlink:href="#lg2" y1="356.058" y2="491.234"/><linearGradient id="lg3"><stop offset="0" stop-color="#fef056"/><stop offset="1" stop-color="#fe860a"/></linearGradient><linearGradient id="SVGID_13_" gradientUnits="userSpaceOnUse" x1="241.187" x2="284.001" xlink:href="#lg3" y1="35.443" y2="35.443"/><linearGradient id="SVGID_14_" gradientTransform="matrix(.707 .707 -.707 .707 1245.924 -273.516)" gradientUnits="userSpaceOnUse" x1="-393.298" x2="-350.483" xlink:href="#lg3" y1="853.157" y2="853.157"/><linearGradient id="SVGID_15_" gradientTransform="matrix(-.707 .707 -.707 -.707 585.661 -29.682)" gradientUnits="userSpaceOnUse" x1="368.794" x2="411.608" xlink:href="#lg3" y1="253.772" y2="253.772"/><linearGradient id="SVGID_16_" gradientUnits="userSpaceOnUse" x1="255" x2="255" xlink:href="#lg2" y1="483.119" y2="400.406"/><linearGradient id="lg4"><stop offset="0" stop-color="#fef056"/><stop offset=".1865" stop-color="#feec53"/><stop offset=".3831" stop-color="#fee04a"/><stop offset=".5843" stop-color="#feca3b"/><stop offset=".7887" stop-color="#fead26"/><stop offset=".9938" stop-color="#fe870b"/><stop offset="1" stop-color="#fe860a"/></linearGradient><linearGradient id="SVGID_17_" gradientUnits="userSpaceOnUse" x1="62.504" x2="62.504" xlink:href="#lg4" y1="376.383" y2="555.047"/><linearGradient id="lg5"><stop offset="0" stop-color="#fe860a" stop-opacity="0"/><stop offset=".8425" stop-color="#fe7a03" stop-opacity=".843"/><stop offset="1" stop-color="#fe7701"/></linearGradient><linearGradient id="SVGID_18_" gradientUnits="userSpaceOnUse" x1="193.173" x2="61.508" xlink:href="#lg5" y1="502.259" y2="428.915"/><linearGradient id="SVGID_19_" gradientTransform="matrix(-1 0 0 1 -2002.992 0)" gradientUnits="userSpaceOnUse" x1="-2450.488" x2="-2450.488" xlink:href="#lg4" y1="376.383" y2="555.047"/><linearGradient id="SVGID_20_" gradientUnits="userSpaceOnUse" x1="485.269" x2="384.6" xlink:href="#lg5" y1="449.578" y2="429.578"/><linearGradient id="SVGID_21_" gradientTransform="matrix(-1 0 0 1 -2002.992 0)" gradientUnits="userSpaceOnUse" x1="-2319.819" x2="-2451.484" xlink:href="#lg5" y1="502.259" y2="428.915"/><linearGradient id="SVGID_22_" gradientUnits="userSpaceOnUse" x1="255" x2="255" xlink:href="#lg4" y1="292.106" y2="475.152"/><linearGradient id="lg6"><stop offset="0" stop-color="#596c76"/><stop offset="1" stop-color="#444"/></linearGradient><linearGradient id="SVGID_23_" gradientUnits="userSpaceOnUse" x1="126.293" x2="126.293" xlink:href="#lg6" y1="324.346" y2="431.575"/><linearGradient id="SVGID_24_" gradientUnits="userSpaceOnUse" x1="196.292" x2="196.292" xlink:href="#lg6" y1="316.725" y2="422.857"/><linearGradient id="SVGID_25_" gradientUnits="userSpaceOnUse" x1="260.799" x2="260.799" xlink:href="#lg6" y1="312.569" y2="418.308"/><linearGradient id="SVGID_26_" gradientUnits="userSpaceOnUse" x1="356.64" x2="356.64" xlink:href="#lg6" y1="316.028" y2="431.824"/><g><g><g><path d="m504.176 203.901-63.263-85.731c-8.415-11.403-21.745-18.133-35.917-18.133h-299.992c-14.172 0-27.502 6.73-35.917 18.133l-63.263 85.731c-8.141 11.032-7.707 26.195 1.051 36.744l207.965 250.496c20.872 25.14 59.449 25.14 80.321 0l207.965-250.496c8.758-10.549 9.191-25.711 1.05-36.744z" fill="url(#SVGID_1_)"/><path d="m429.459 222.686c-.165 6.413-1.736 12.749-4.689 17.958l-142.294 250.499c-7.148 12.571-17.312 18.857-27.476 18.857s-20.328-6.286-27.475-18.858l-142.295-250.498c-2.953-5.209-4.524-11.545-4.689-17.958z" fill="url(#SVGID_2_)"/><path d="m429.46 222.69c-.17 6.41-1.74 12.75-4.69 17.95l-142.29 250.5c-7.15 12.57-17.32 18.86-27.48 18.86 3.81 0 7.63-6.29 10.32-18.86l53.39-250.5c1.11-5.2 1.71-11.54 1.76-17.95z" fill="url(#SVGID_3_)"/><path d="m320.47 222.686c-.051 6.413-.646 12.749-1.761 17.958l-53.392 250.498c-2.687 12.572-6.502 18.858-10.317 18.858s-7.629-6.286-10.316-18.858l-53.392-250.498c-1.115-5.209-1.711-11.545-1.761-17.958z" fill="url(#SVGID_4_)"/><path d="m504.176 203.901-63.263-85.731c-8.415-11.404-21.745-18.133-35.917-18.133h-299.992c-14.172 0-27.502 6.73-35.917 18.133l-63.263 85.731c-4.119 5.582-6.034 12.22-5.796 18.784h509.944c.239-6.564-1.677-13.202-5.796-18.784z" fill="url(#SVGID_5_)"/><path d="m255 100.04-65.46 122.64h-.02l-84.52-122.64z" fill="url(#SVGID_6_)"/><path d="m255 100.04 65.46 122.64h.02l84.52-122.64z" fill="url(#SVGID_7_)"/><path d="m189.531 222.686h-108.99l24.463-122.649z" fill="url(#SVGID_8_)"/><path d="m320.47 222.686h108.989l-24.463-122.649z" fill="url(#SVGID_9_)"/><path d="m320.47 222.686h108.989l-24.463-122.649z" fill="url(#SVGID_10_)"/><path d="m189.531 222.686h130.939l-65.47-122.649z" fill="url(#SVGID_11_)"/><path d="m74.285 321.842 140.555 169.299c20.872 25.14 59.449 25.14 80.321 0l140.555-169.299z" fill="url(#SVGID_12_)"/></g><g><path d="m255 70.886c-8.514 0-15.415-6.902-15.415-15.415v-40.055c0-8.514 6.902-15.416 15.415-15.416 8.514 0 15.415 6.902 15.415 15.415v40.055c0 8.514-6.901 15.416-15.415 15.416z" fill="url(#SVGID_13_)"/></g><g><g><path d="m349.261 86.479c-6.02-6.02-6.02-15.78 0-21.8l28.323-28.323c6.02-6.02 15.78-6.02 21.8 0 6.02 6.02 6.02 15.78 0 21.8l-28.323 28.323c-6.019 6.02-15.78 6.02-21.8 0z" fill="url(#SVGID_14_)"/></g><g><path d="m110.616 36.356c6.02-6.02 15.78-6.02 21.8 0l28.323 28.323c6.02 6.02 6.02 15.78 0 21.8-6.02 6.02-15.78 6.02-21.8 0l-28.323-28.323c-6.02-6.02-6.02-15.78 0-21.8z" fill="url(#SVGID_15_)"/></g></g></g><path d="m133.465 393.124 81.375 98.017c20.872 25.14 59.449 25.14 80.321 0l81.375-98.017z" fill="url(#SVGID_16_)"/><g><g><path d="m14.47 393.906c-.093.026-.186.054-.278.081-12.455 3.738-11.965 21.616.613 24.921l20.658 5.427c11.366 2.986 14.878 17.395 6.162 25.276l-37.293 33.722c-4.436 4.011-5.69 10.612-2.709 15.797 4.655 8.098 14.354 12.76 24.198 10.136 18.844-5.022 37.793-9.164 56.81-12.434 24.453-4.204 42.377-25.312 42.377-50.123v-74.213c-37.09 3.844-74.025 10.975-110.538 21.41z" fill="url(#SVGID_17_)"/><path d="m74.667 407.782-5.958 13.25 24.793 36.693c9.284 13.74 3.855 32.534-11.326 39.207.142-.025.285-.049.427-.074 24.463-4.209 42.405-25.308 42.405-50.131v-38.946h-50.341z" fill="url(#SVGID_18_)"/></g><g><path d="m495.53 393.906c.093.026.185.054.278.081 12.455 3.738 11.965 21.616-.612 24.921l-20.658 5.427c-11.366 2.986-14.878 17.395-6.162 25.276l37.292 33.721c4.436 4.011 5.69 10.612 2.709 15.797-4.655 8.098-14.354 12.76-24.198 10.136-18.844-5.022-37.793-9.164-56.81-12.434-24.453-4.204-42.377-25.312-42.377-50.123v-74.213c37.09 3.845 74.025 10.976 110.538 21.411z" fill="url(#SVGID_19_)"/><path d="m508.38 499.129c-4.66 8.1-14.36 12.76-24.2 10.14-18.84-5.03-37.79-9.17-56.81-12.44-24.45-4.2-42.38-25.31-42.38-50.12v-74.21c20.438 2.12 40.827 5.232 61.129 9.354l39.921 39.466-11.5 3.02c-11.37 2.98-14.88 17.39-6.16 25.27l37.29 33.72c4.43 4.02 5.69 10.62 2.71 15.8z" fill="url(#SVGID_20_)"/><path d="m435.333 407.782 5.958 13.25-24.793 36.693c-9.284 13.74-3.855 32.534 11.326 39.207-.142-.025-.285-.049-.427-.074-24.463-4.209-42.405-25.308-42.405-50.131v-38.946h50.341z" fill="url(#SVGID_21_)"/></g><path d="m430.538 312.906c-115.618-33.043-235.459-33.042-351.076 0-9.287 2.654-15.702 11.13-15.702 20.789v73.67c0 14.144 13.386 24.544 27.053 20.901 108.308-28.863 220.065-28.864 328.375 0 13.667 3.642 27.053-6.758 27.053-20.901 0-24.556 0-49.113 0-73.67-.001-9.659-6.416-18.135-15.703-20.789z" fill="url(#SVGID_22_)"/><g><g><path d="m126.313 329.532c-7.212 1.381-11.372 6.353-11.372 15.013v33.748c0 8.659 4.16 11.839 11.245 10.48 7.084-1.358 11.399-6.161 11.399-14.82 0-1.732 0-2.598 0-4.33-2.993.521-4.488.79-7.476 1.345-3.798.705-5.947-2.562-5.947-6.51 0-3.693 2.149-8.066 5.947-8.772 8.508-1.58 12.773-2.302 21.315-3.611 3.813-.584 5.977 2.04 5.977 5.351v13.372c.342 19.323-13.427 31.719-31.216 35.293-16.195 3.254-32.605-4.508-30.883-23.39 0-11.249 0-22.498 0-33.748-.255-18.715 12.658-32.792 30.251-36.596 13.9-3.006 32.044 3.108 31.849 19.981-.087 7.552-3.184 9.855-9.917 10.927-5.336.849-9.773.228-9.899-4.335-.128-4.56-.52-11.457-11.273-9.398z" fill="url(#SVGID_23_)"/><path d="m177.54 397.491c-4.339.495-8.673-.993-8.673-5.069 0-26.997 0-53.995 0-80.992 0-4.203 4.971-6.617 9.949-7.174 4.977-.558 9.961.74 9.961 4.943v69.786c9.694-.965 19.445-1.703 29.174-2.209 3.843-.208 5.765 4.042 5.765 8.371 0 4.33-1.922 8.74-5.765 8.949-13.499.732-26.978 1.864-40.411 3.395z" fill="url(#SVGID_24_)"/><path d="m229.358 364.283c0-11.249 0-22.498 0-33.748-.434-18.957 13.184-30.671 31.415-30.51 18.253.161 31.951 12.045 31.533 31.047v33.748c.646 18.586-14.377 29.467-31.533 29.06-16.681-.396-32.818-10.807-31.415-29.597zm42.955-34.01c0-8.787-4.359-12.869-11.54-12.93-7.182-.061-11.413 3.947-11.413 12.734v33.748c0 8.787 4.232 12.675 11.413 12.736s11.54-3.753 11.54-12.54c0-11.249 0-22.498 0-33.748z" fill="url(#SVGID_25_)"/><path d="m389.378 400.561c-1.517 4.153-7.205 5.193-13.033 4.142-5.702-1.028-11.797-4.186-12.813-8.806-2.199-10.404-4.402-20.808-6.608-31.21-2.207 9.739-4.412 19.478-6.616 29.218-1.018 4.314-7.13 5.633-12.869 4.936-5.866-.712-11.742-3.489-13.147-8.089-8.437-26.613-16.921-53.211-25.453-79.795-.128-.39-.257-1.035-.257-1.671 0-4.33 7.17-7.425 12.926-6.948 3.07.254 5.626 1.508 6.393 4.253 6.496 22.46 12.966 44.927 19.409 67.401 3.354-13.917 6.71-27.832 10.068-41.748.764-3.335 5.221-4.503 9.544-3.852s8.767 3.161 9.529 6.726c3.346 14.924 6.685 29.849 10.019 44.775 6.395-20.529 12.802-41.055 19.219-61.577.757-2.516 3.28-3.003 6.304-2.337 5.669 1.247 12.703 6.488 12.703 10.818 0 .637-.126 1.243-.251 1.595-8.377 24.049-16.733 48.105-25.067 72.169z" fill="url(#SVGID_26_)"/></g></g></g></g></svg>