<svg height="463pt" viewBox="0 -24 463.16475 463" width="463pt" xmlns="http://www.w3.org/2000/svg"><path d="m459.792969 110.421875c19.160156 98.71875-41.808594 230.539063-222.410157 303.710937-3.714843 1.558594-7.902343 1.558594-11.621093 0-180.019531-71.421874-241.578125-203.832031-222.410157-303.710937 12.773438-67.359375 59.8125-110.3398438 120.792969-110.3398438 34.257813 0 70.839844 13.9414068 107.429688 41.2304688 36-26.128906 73.167969-40.058594 106.847656-40.058594 60.980469 0 108.011719 42.96875 121.371094 109.167969zm-118.738281 162.140625v-118.488281c0-9.683594-7.480469-17.523438-16.710938-17.523438h-50.140625v-13.726562c0-9.683594-7.480469-17.53125-16.710937-17.53125h-51.820313c-9.226563 0-16.707031 7.847656-16.707031 17.53125v13.726562h-50.140625c-9.230469 0-16.710938 7.839844-16.710938 17.523438v118.488281c0 9.679688 7.480469 17.53125 16.710938 17.53125h185.519531c9.230469 0 16.710938-7.851562 16.710938-17.53125zm0 0" fill="#00efd1"/><path d="m341.054688 194.960938v19.191406c0 9.671875-7.480469 17.519531-16.710938 17.519531h-185.519531c-9.230469 0-16.710938-7.847656-16.710938-17.519531v-60.078125c0-9.683594 7.480469-17.523438 16.710938-17.523438h185.519531c9.230469 0 16.710938 7.839844 16.710938 17.523438zm0 0" fill="#00acea"/><path d="m341.054688 214.152344v58.410156c0 9.679688-7.480469 17.53125-16.710938 17.53125h-185.519531c-9.230469 0-16.710938-7.851562-16.710938-17.53125v-58.410156c0 9.671875 7.480469 17.519531 16.710938 17.519531h185.519531c9.230469 0 16.710938-7.847656 16.710938-17.519531zm0 0" fill="#40d7ff"/><path d="m274.203125 122.824219v13.726562h-85.238281v-13.726562c0-9.683594 7.480468-17.53125 16.707031-17.53125h51.820313c9.230468 0 16.710937 7.847656 16.710937 17.53125zm0 0" fill="#00efd1"/><g fill="#f4b844"><path d="m282.203125 136.550781h-16v-13.726562c0-5.257813-3.90625-9.53125-8.710937-9.53125h-51.820313c-4.796875 0-8.707031 4.273437-8.707031 9.53125v13.726562h-16v-13.726562c0-14.078125 11.082031-25.53125 24.707031-25.53125h51.820313c13.625 0 24.710937 11.453125 24.710937 25.53125zm0 0"/><path d="m247.582031 190.691406h-32c-4.417969 0-8-3.582031-8-8 0-4.417968 3.582031-8 8-8h32c4.417969 0 8 3.582032 8 8 0 4.417969-3.582031 8-8 8zm0 0"/></g></svg>