<svg id="Capa_1" enable-background="new 0 0 512 512" height="512" viewBox="0 0 512 512" width="512" xmlns="http://www.w3.org/2000/svg"><g><g fill="#020288"><path d="m349.775 154.181h-2.557c-3.21-10.67-7.474-20.993-12.733-30.832l1.901-1.909c8.778-8.815 8.778-23.159 0-31.974l-36.924-37.08c-4.28-4.298-9.977-6.666-16.042-6.666-6.064 0-11.762 2.367-16.042 6.666l-1.796 1.804c-9.78-5.266-20.039-9.536-30.644-12.754v-2.661c0-12.491-10.158-22.652-22.643-22.652h-52.175c-12.486 0-22.644 10.162-22.644 22.652v2.661c-10.605 3.218-20.862 7.487-30.643 12.753l-1.796-1.804c-4.281-4.298-9.978-6.666-16.042-6.666s-11.761 2.368-16.041 6.666l-36.923 37.081c-8.778 8.816-8.778 23.159 0 31.974l1.902 1.91c-5.26 9.839-9.522 20.16-12.733 30.832h-2.557c-12.485-.001-22.643 10.161-22.643 22.652v52.483c0 12.491 10.158 22.652 22.643 22.652h2.557c3.21 10.671 7.473 20.993 12.732 30.832l-1.901 1.909c-8.779 8.815-8.779 23.159 0 31.974l36.924 37.08c4.28 4.298 9.977 6.665 16.041 6.666 6.064 0 11.762-2.367 16.042-6.666l1.796-1.804c9.781 5.266 20.038 9.535 30.643 12.753v2.661c0 12.491 10.158 22.653 22.644 22.653h52.175c12.485 0 22.643-10.162 22.643-22.653v-10.258c0-5.523-4.477-10-10-10s-10 4.477-10 10v10.258c0 1.463-1.186 2.653-2.643 2.653h-52.175c-1.458 0-2.644-1.19-2.644-2.653v-10.258c0-4.579-3.11-8.573-7.549-9.695-13.936-3.522-27.273-9.074-39.642-16.503-3.941-2.368-8.99-1.741-12.235 1.517l-7.185 7.216c-.64.643-1.37.778-1.87.778s-1.229-.135-1.87-.778l-36.924-37.08c-1.029-1.034-1.029-2.715 0-3.75l7.249-7.279c3.224-3.237 3.844-8.248 1.506-12.173-7.401-12.427-12.934-25.828-16.444-39.832-1.115-4.449-5.113-7.569-9.7-7.569h-10.17c-1.458 0-2.643-1.19-2.643-2.652v-52.483c0-1.462 1.186-2.652 2.643-2.652h10.171c4.586 0 8.585-3.12 9.7-7.568 3.51-14.004 9.043-27.405 16.444-39.833 2.338-3.925 1.718-8.936-1.506-12.173l-7.249-7.279c-1.029-1.034-1.029-2.716 0-3.75l36.924-37.079c.64-.643 1.37-.777 1.87-.778.5 0 1.23.135 1.87.778l7.185 7.216c3.245 3.258 8.294 3.884 12.235 1.517 12.369-7.429 25.707-12.981 39.642-16.503 4.439-1.122 7.549-5.116 7.549-9.695v-10.258c0-1.462 1.186-2.652 2.644-2.652h52.175c1.458 0 2.643 1.19 2.643 2.652v10.258c0 4.579 3.11 8.573 7.549 9.695 13.937 3.522 27.274 9.075 39.642 16.503 3.942 2.367 8.99 1.742 12.235-1.517l7.186-7.216c.64-.643 1.37-.778 1.87-.778s1.23.135 1.87.778l36.924 37.08c1.029 1.034 1.029 2.715 0 3.749l-7.249 7.279c-3.224 3.237-3.843 8.248-1.506 12.173 7.402 12.428 12.934 25.83 16.443 39.833 1.115 4.449 5.114 7.569 9.7 7.569h10.171c1.458 0 2.643 1.19 2.643 2.652v52.483c0 5.523 4.477 10 10 10s10-4.477 10-10v-52.483c0-12.491-10.157-22.653-22.643-22.653z"/><path d="m253.426 276.787c-17.724 16.325-41.332 26.302-67.216 26.302-54.893 0-99.552-44.866-99.552-100.013s44.659-100.013 99.552-100.013 99.552 44.866 99.552 100.013c0 19.42-5.538 37.565-15.111 52.925h22.846c7.851-15.973 12.265-33.941 12.265-52.925 0-66.175-53.631-120.013-119.552-120.013s-119.552 53.838-119.552 120.013 53.631 120.013 119.552 120.013c24.902 0 48.05-7.683 67.216-20.811z"/></g><g><path d="m501.267 312.649h-8.634c-3.225-12.865-8.29-24.996-14.899-36.093l6.153-6.179c4.174-4.191 4.174-10.971 0-15.162l-31.344-31.476c-4.194-4.212-11.01-4.212-15.205 0l-6.1 6.126c-11.05-6.637-23.13-11.724-35.942-14.962v-8.708c0-5.932-4.805-10.74-10.733-10.74h-44.29c-5.927 0-10.733 4.809-10.733 10.74v8.708c-12.811 3.238-24.891 8.325-35.942 14.962l-6.1-6.126c-4.194-4.212-11.01-4.212-15.205 0l-31.344 31.476c-4.174 4.191-4.174 10.971 0 15.163l6.153 6.179c-6.609 11.097-11.675 23.228-14.9 36.093h-8.634c-5.927 0-10.733 4.809-10.733 10.74v44.552c0 5.932 4.805 10.74 10.733 10.74h8.634c3.225 12.865 8.29 24.996 14.9 36.093l-6.153 6.179c-4.174 4.191-4.174 10.971 0 15.163l31.344 31.476c4.194 4.212 11.01 4.212 15.205 0l6.1-6.126c11.051 6.637 23.13 11.724 35.942 14.962v8.708c0 5.932 4.805 10.74 10.733 10.74h44.29c5.927 0 10.733-4.809 10.733-10.74v-8.708c12.811-3.238 24.891-8.325 35.942-14.962l6.1 6.126c4.194 4.212 11.01 4.212 15.205 0l31.344-31.476c4.174-4.191 4.174-10.971 0-15.163l-6.153-6.179c6.609-11.097 11.675-23.228 14.899-36.093h8.634c5.927 0 10.733-4.809 10.733-10.74v-44.552c0-5.933-4.805-10.741-10.733-10.741zm-138.848 122.633c-49.494 0-89.617-40.123-89.617-89.617s40.123-89.617 89.617-89.617 89.617 40.123 89.617 89.617-40.123 89.617-89.617 89.617z" fill="#b2f0fb"/><g><circle cx="362.419" cy="345.665" fill="#b2f0fb" r="31.943"/></g></g></g></svg>